HIERARCHY
ROOT Hips
{
	OFFSET 0.000000 0.000000 0.000000
	CHANNELS 6 Xposition Yposition Zposition Xrotation Yrotation Zrotation
	JOINT LeftUpLeg_virtual
	{
		OFFSET 0.000000 0.000000 0.000000
		CHANNELS 3 Xrotation Yrotation Zrotation
		JOINT LeftUpLeg
		{
			OFFSET 11.394100 -6.187798 -0.413800
			CHANNELS 3 Xrotation Yrotation Zrotation
			JOINT LeftLeg
			{
				OFFSET 0.430247 -32.302673 3.732800
				CHANNELS 3 Xrotation Yrotation Zrotation
				JOINT LeftFoot
				{
					OFFSET -0.430247 -48.264931 -6.423300
					CHANNELS 3 Xrotation Yrotation Zrotation
					JOINT LeftToeBase
					{
						OFFSET 4.230900 -16.068199 23.438400
						CHANNELS 3 Xrotation Yrotation Zrotation
						JOINT LeftToe_End
						{
							OFFSET 4.510700 0.695400 19.974600
							CHANNELS 3 Xrotation Yrotation Zrotation
							End Site
							{
								OFFSET 0 0 0
							}
						}
					}
				}
			}
		}
	}
	JOINT RightUpLeg_virtual
	{
		OFFSET 0.000000 0.000000 0.000000
		CHANNELS 3 Xrotation Yrotation Zrotation
		JOINT RightUpLeg
		{
			OFFSET -11.333700 -6.187798 -0.413800
			CHANNELS 3 Xrotation Yrotation Zrotation
			JOINT RightLeg
			{
				OFFSET -0.430392 -32.302628 3.733000
				CHANNELS 3 Xrotation Yrotation Zrotation
				JOINT RightFoot
				{
					OFFSET 0.430392 -48.264973 -6.423500
					CHANNELS 3 Xrotation Yrotation Zrotation
					JOINT RightToeBase
					{
						OFFSET -4.230900 -16.068199 23.438400
						CHANNELS 3 Xrotation Yrotation Zrotation
						JOINT RightToe_End
						{
							OFFSET -4.510700 0.695400 19.974600
							CHANNELS 3 Xrotation Yrotation Zrotation
							End Site
							{
								OFFSET 0 0 0
							}
						}
					}
				}
			}
		}
	}
	JOINT Spine_virtual
	{
		OFFSET 0.000000 0.000000 0.000000
		CHANNELS 3 Xrotation Yrotation Zrotation
		JOINT Spine
		{
			OFFSET -0.002400 12.777504 0.315300
			CHANNELS 3 Xrotation Yrotation Zrotation
			JOINT Spine1
			{
				OFFSET -0.002067 5.816869 0.032633
				CHANNELS 3 Xrotation Yrotation Zrotation
				JOINT Spine1_split
				{
					OFFSET -0.002067 5.816869 0.032633
					CHANNELS 3 Xrotation Yrotation Zrotation
					JOINT Spine2
					{
						OFFSET -0.002067 5.816869 0.032633
						CHANNELS 3 Xrotation Yrotation Zrotation
						JOINT Neck_virtual
						{
							OFFSET 0.000000 0.000000 0.000000
							CHANNELS 3 Xrotation Yrotation Zrotation
							JOINT Neck
							{
								OFFSET -0.003700 21.199493 -0.826900
								CHANNELS 3 Xrotation Yrotation Zrotation
								JOINT Head
								{
									OFFSET 0.000000 20.442200 4.834800
									CHANNELS 3 Xrotation Yrotation Zrotation
									JOINT HeadTop_End
									{
										OFFSET 0.000000 34.668396 4.968400
										CHANNELS 3 Xrotation Yrotation Zrotation
										End Site
										{
											OFFSET 0 0 0
										}
									}
								}
							}
						}
						JOINT LeftShoulder_virtual
						{
							OFFSET 0.000000 0.000000 0.000000
							CHANNELS 3 Xrotation Yrotation Zrotation
							JOINT LeftShoulder
							{
								OFFSET 3.288150 8.794197 -1.372250
								CHANNELS 3 Xrotation Yrotation Zrotation
								JOINT LeftShoulder_split
								{
									OFFSET 3.288150 8.794197 -1.372250
									CHANNELS 3 Xrotation Yrotation Zrotation
									JOINT LeftArm
									{
										OFFSET 11.953299 -2.279007 -0.146200
										CHANNELS 3 Xrotation Yrotation Zrotation
										JOINT LeftForeArm
										{
											OFFSET 18.448900 0.000000 0.000000
											CHANNELS 3 Xrotation Yrotation Zrotation
											JOINT LeftHand
											{
												OFFSET 29.527798 0.000000 0.000000
												CHANNELS 3 Xrotation Yrotation Zrotation
												End Site
												{
													OFFSET 0 0 0
												}
											}
										}
									}
								}
							}
						}
						JOINT RightShoulder_virtual
						{
							OFFSET 0.000000 0.000000 0.000000
							CHANNELS 3 Xrotation Yrotation Zrotation
							JOINT RightShoulder
							{
								OFFSET -3.249400 8.794197 -1.372250
								CHANNELS 3 Xrotation Yrotation Zrotation
								JOINT RightShoulder_split
								{
									OFFSET -3.249400 8.794197 -1.372250
									CHANNELS 3 Xrotation Yrotation Zrotation
									JOINT RightArm
									{
										OFFSET -11.953299 -2.279007 -0.146200
										CHANNELS 3 Xrotation Yrotation Zrotation
										JOINT RightForeArm
										{
											OFFSET -18.448900 0.000000 0.000000
											CHANNELS 3 Xrotation Yrotation Zrotation
											JOINT RightHand
											{
												OFFSET -29.527802 0.000000 0.000000
												CHANNELS 3 Xrotation Yrotation Zrotation
												End Site
												{
													OFFSET 0 0 0
												}
											}
										}
									}
								}
							}
						}
					}
				}
			}
		}
	}
}
MOTION
Frames: 9
Frame Time: 0.03333333
-30.914244 50.165649 272.325043 0.000000 0.000000 0.000000 -172.491947 16.392080 178.674129 -99.462314 -12.039674 31.411924 97.529330 -7.110832 -7.094238 11.865072 -7.484921 10.741046 -3.818102 0.508957 -1.231296 0.000000 0.000000 0.000000 -172.735634 15.378892 177.834111 -101.806101 15.622818 -26.645152 99.096052 2.832111 6.252475 4.444401 4.875786 -7.892494 2.996030 1.739365 2.371909 0.000000 0.000000 0.000000 -172.726605 17.352464 -179.937263 18.724574 -3.709951 -6.898234 4.182880 -0.214904 -2.574360 0.838325 -0.104646 0.385615 0.000000 0.000000 0.000000 4.894988 -0.718644 -1.831056 -1.592690 -0.088365 -1.143984 -20.270130 0.115724 7.864305 0.000000 0.000000 0.000000 3.998522 -0.481463 -2.413445 0.988077 -2.888671 -11.263235 -3.196031 -0.179567 1.611976 -15.365950 -40.244164 -44.642250 0.490581 -58.652603 0.927707 0.000000 0.000000 0.000000 5.038663 -0.591267 -1.887507 -2.745008 19.312561 -1.272123 -1.507118 0.663812 0.658039 -25.899505 26.397493 30.504024 -179.930269 69.142169 179.616244 0.000000 0.000000 0.000000 
-30.899673 50.165092 272.305389 0.000000 0.000000 0.000000 -172.529417 16.438942 178.638940 -99.507004 -12.095542 31.364092 97.600473 -7.120769 -7.078926 11.877732 -7.466068 10.772637 -3.822467 0.509809 -1.274962 0.000000 0.000000 0.000000 -172.779949 15.394749 177.806859 -101.888637 15.549028 -26.694869 99.092234 2.832704 6.274988 4.473511 4.827859 -7.901392 3.020792 1.730462 2.379698 0.000000 0.000000 0.000000 -172.770100 17.380291 -179.939612 18.641876 -3.658123 -6.934621 4.154888 -0.201758 -2.578910 0.838037 -0.111167 0.389921 0.000000 0.000000 0.000000 4.866557 -0.690082 -1.860145 -1.573061 -0.222052 -1.077674 -21.022182 -0.037852 7.951237 0.000000 0.000000 0.000000 4.016419 -0.471804 -2.424051 0.971226 -2.883187 -11.267102 -3.392370 -0.079765 1.540305 -15.319010 -40.359099 -44.585518 0.559537 -58.512482 0.995847 0.000000 0.000000 0.000000 5.027481 -0.568532 -1.910095 -3.061074 18.482311 -2.172796 -1.430845 0.625718 0.670156 -27.563143 26.642968 31.020626 179.812393 68.273471 -179.998707 0.000000 0.000000 0.000000 
-30.888803 50.166550 272.294434 0.000000 0.000000 0.000000 -172.565604 16.501518 178.589311 -99.553996 -12.148491 31.312924 97.654008 -7.128583 -7.048481 11.899252 -7.444747 10.794471 -3.830152 0.509037 -1.316994 0.000000 0.000000 0.000000 -172.821189 15.432088 177.764211 -101.965442 15.472168 -26.744927 99.093744 2.833480 6.293412 4.524356 4.774530 -7.902668 3.032466 1.722203 2.384103 0.000000 0.000000 0.000000 -172.809879 17.430518 -179.964502 18.556611 -3.618777 -6.953190 4.133939 -0.199369 -2.575274 0.837661 -0.127716 0.394632 0.000000 0.000000 0.000000 4.846295 -0.669013 -1.880777 -1.565458 -0.347817 -1.020728 -21.728049 -0.214643 8.030844 0.000000 0.000000 0.000000 4.054514 -0.476565 -2.422601 0.951326 -2.903553 -11.319042 -3.579984 -0.017985 1.499103 -15.209103 -40.460757 -44.525170 0.609567 -58.426005 1.023471 0.000000 0.000000 0.000000 5.022075 -0.558194 -1.921598 -3.334105 17.778853 -2.874025 -1.318306 0.572281 0.639972 -29.061687 26.918542 31.345808 179.679068 67.697720 -179.738887 0.000000 0.000000 0.000000 
-30.885303 50.172127 272.289368 0.000000 0.000000 0.000000 -172.601626 16.583981 178.530927 -99.604847 -12.191720 31.254703 97.683023 -7.134687 -7.004584 11.934752 -7.426496 10.801586 -3.851656 0.504812 -1.348700 0.000000 0.000000 0.000000 -172.859165 15.498273 177.708941 -102.027590 15.396583 -26.794784 99.091729 2.830008 6.309887 4.572933 4.715044 -7.908890 3.051243 1.714888 2.390754 0.000000 0.000000 0.000000 -172.844617 17.502491 179.986276 18.468254 -3.590230 -6.954990 4.121097 -0.206246 -2.563631 0.858960 -0.145378 0.389490 0.000000 0.000000 0.000000 4.834288 -0.656100 -1.890605 -1.563834 -0.465260 -0.977422 -22.392534 -0.409692 8.096079 0.000000 0.000000 0.000000 4.102803 -0.490942 -2.409426 0.929463 -2.949109 -11.401169 -3.783617 0.006137 1.498293 -15.046618 -40.541493 -44.448296 0.612639 -58.370476 0.994500 0.000000 0.000000 0.000000 5.017976 -0.558667 -1.921604 -3.566649 17.176983 -3.418567 -1.185916 0.482584 0.586414 -30.423794 27.235371 31.521149 179.637363 67.253362 -179.585112 0.000000 0.000000 0.000000 
-30.888649 50.178909 272.291351 0.000000 0.000000 0.000000 -172.636009 16.686299 178.467078 -99.657043 -12.223785 31.184933 97.691362 -7.138618 -6.949029 11.984790 -7.410385 10.798071 -3.882228 0.496687 -1.370552 0.000000 0.000000 0.000000 -172.894341 15.592608 177.649491 -102.073325 15.329796 -26.842912 99.085629 2.820543 6.325975 4.607703 4.652593 -7.928221 3.083650 1.708753 2.403059 0.000000 0.000000 0.000000 -172.874588 17.590635 179.920857 18.376632 -3.570065 -6.945254 4.114945 -0.218499 -2.547167 0.898918 -0.172376 0.380290 0.000000 0.000000 0.000000 4.826709 -0.650567 -1.892261 -1.562909 -0.575058 -0.949596 -23.016264 -0.610980 8.141886 0.000000 0.000000 0.000000 4.153157 -0.510486 -2.389537 0.908099 -3.011237 -11.491915 -3.992642 0.009651 1.525577 -14.854579 -40.590885 -44.353063 0.552571 -58.311463 0.910238 0.000000 0.000000 0.000000 5.011581 -0.567096 -1.913514 -3.772285 16.637738 -3.869878 -1.085401 0.352082 0.515548 -31.690787 27.583217 31.626576 179.656064 66.819140 -179.522220 0.000000 0.000000 0.000000 
-30.899162 50.185314 272.296875 0.000000 0.000000 0.000000 -172.668234 16.804680 178.405210 -99.709103 -12.245084 31.102066 97.682893 -7.138768 -6.887870 12.041192 -7.393613 10.788034 -3.907334 0.484934 -1.388367 0.000000 0.000000 0.000000 -172.926743 15.704896 177.590273 -102.108214 15.278283 -26.890038 99.076723 2.808551 6.340338 4.635110 4.592772 -7.951757 3.119945 1.703469 2.417907 0.000000 0.000000 0.000000 -172.898603 17.691269 179.844263 18.283949 -3.555542 -6.931379 4.112156 -0.232380 -2.529755 0.939433 -0.187151 0.369452 0.000000 0.000000 0.000000 4.816453 -0.649635 -1.888308 -1.557228 -0.679173 -0.936828 -23.597981 -0.808030 8.169833 0.000000 0.000000 0.000000 4.194252 -0.531270 -2.368999 0.887876 -3.079889 -11.582188 -4.195132 0.003365 1.573288 -14.646002 -40.596435 -44.229211 0.432168 -58.208026 0.781969 0.000000 0.000000 0.000000 4.999562 -0.578869 -1.902221 -3.965006 16.132628 -4.281811 -0.990864 0.233078 0.415335 -32.920569 27.899069 31.751500 179.709476 66.366674 -179.533845 0.000000 0.000000 0.000000 
-30.913862 50.191109 272.303528 0.000000 0.000000 0.000000 -172.698232 16.930632 178.351047 -99.755487 -12.260051 31.005698 97.664171 -7.132624 -6.829072 12.091017 -7.371366 10.778118 -3.917879 0.470210 -1.409709 0.000000 0.000000 0.000000 -172.956755 15.826312 177.535249 -102.138068 15.243708 -26.932353 99.068021 2.802099 6.347109 4.659670 4.547381 -7.957346 3.142758 1.697525 2.428966 0.000000 0.000000 0.000000 -172.917877 17.799902 179.769391 18.192091 -3.544815 -6.920463 4.109318 -0.245604 -2.512509 0.977888 -0.206303 0.372307 0.000000 0.000000 0.000000 4.798397 -0.652281 -1.883381 -1.550217 -0.780547 -0.935751 -24.148330 -0.991849 8.175370 0.000000 0.000000 0.000000 4.221598 -0.549817 -2.353643 0.868655 -3.144878 -11.665342 -4.368568 -0.003739 1.616160 -14.451951 -40.567687 -44.099834 0.271358 -58.054668 0.635336 0.000000 0.000000 0.000000 4.981492 -0.589906 -1.891187 -4.162803 15.643903 -4.693313 -0.897546 0.132363 0.323760 -34.112055 28.147845 31.952086 179.757055 65.938004 -179.582448 0.000000 0.000000 0.000000 
-30.930504 50.195190 272.305817 0.000000 0.000000 0.000000 -172.726427 17.054139 178.309260 -99.794924 -12.273555 30.898270 97.637479 -7.122049 -6.777274 12.125951 -7.343498 10.769297 -3.916155 0.453774 -1.436119 0.000000 0.000000 0.000000 -172.985264 15.944971 177.488777 -102.163169 15.223204 -26.970115 99.065549 2.804846 6.343895 4.681267 4.523683 -7.937131 3.148132 1.690785 2.432677 0.000000 0.000000 0.000000 -172.933805 17.910146 179.706703 18.103761 -3.537947 -6.918415 4.103858 -0.256889 -2.497212 0.998227 -0.222959 0.394723 0.000000 0.000000 0.000000 4.772511 -0.656889 -1.879718 -1.542937 -0.877872 -0.945469 -24.673118 -1.150662 8.154250 0.000000 0.000000 0.000000 4.230357 -0.566135 -2.345008 0.848598 -3.197690 -11.744628 -4.498418 -0.032230 1.641092 -14.270765 -40.524076 -43.968742 0.114325 -57.889719 0.506237 0.000000 0.000000 0.000000 4.956256 -0.598734 -1.881969 -4.378187 15.160681 -5.114382 -0.785911 0.065879 0.241334 -35.234590 28.307429 32.258044 179.790113 65.600306 -179.652376 0.000000 0.000000 0.000000 
-30.945084 50.199257 272.301880 0.000000 0.000000 0.000000 -172.753516 17.170163 178.281051 -99.828419 -12.291694 30.787658 97.605234 -7.113239 -6.736385 12.150121 -7.316172 10.757337 -3.915330 0.436298 -1.463678 0.000000 0.000000 0.000000 -173.011997 16.054904 177.449394 -102.182943 15.207254 -27.004514 99.073683 2.813631 6.335113 4.692079 4.518539 -7.900016 3.157126 1.683890 2.430940 0.000000 0.000000 0.000000 -172.947821 18.018608 179.660340 18.019058 -3.535466 -6.928391 4.098217 -0.265450 -2.484049 1.011564 -0.230176 0.409322 0.000000 0.000000 0.000000 4.742946 -0.662366 -1.878163 -1.540942 -0.969853 -0.967613 -25.180338 -1.272196 8.099698 0.000000 0.000000 0.000000 4.221940 -0.578551 -2.341571 0.826644 -3.235191 -11.825768 -4.598351 -0.080015 1.647716 -14.102647 -40.482869 -43.838183 -0.006497 -57.741948 0.418050 0.000000 0.000000 0.000000 4.925067 -0.605119 -1.874726 -4.621559 14.678647 -5.541868 -0.657683 0.023402 0.193850 -36.237084 28.385827 32.653208 179.802572 65.401404 -179.719831 0.000000 0.000000 0.000000 
